<?xml version="1.0" encoding="utf-8"?>
<!-- Generator: Adobe Illustrator 22.0.0, SVG Export Plug-In . SVG Version: 6.00 Build 0)  -->
<svg version="1.1" id="Capa_1" xmlns="http://www.w3.org/2000/svg" xmlns:xlink="http://www.w3.org/1999/xlink" x="0px" y="0px"
	 viewBox="0 0 24 24" style="enable-background:new 0 0 24 24;" xml:space="preserve">
<style type="text/css">
	.st0{fill:none;}
	.st1{fill:#FFFFFF;}
	.st2{fill:#4B91C1;}
</style>
<g>
	<title>background</title>
	<rect id="canvas_background" x="-1" y="-1" class="st0" width="582" height="402"/>
</g>
<g>
	<title>Layer 1</title>
	<rect id="svg_2" x="8.7" y="6" class="st1" width="6.5" height="7.6"/>
	<rect id="svg_3" x="7.1" y="14" class="st1" width="10.1" height="4.1"/>
	<rect id="svg_4" x="8.7" y="17.4" class="st1" width="7" height="1.5"/>
	<rect id="svg_5" x="10.7" y="17.9" class="st1" width="2.6" height="1.3"/>
	<path id="user2" class="st2" d="M12,3.8c-4.5,0-8.2,3.7-8.2,8.2s3.7,8.2,8.2,8.2s8.2-3.7,8.2-8.2S16.5,3.8,12,3.8z M12,6.5
		c1.5,0,2.7,1.5,2.7,3.4s-1.2,3.4-2.7,3.4s-2.7-1.5-2.7-3.4S10.5,6.5,12,6.5z M16.5,17.1c-1.2,1-2.8,1.7-4.5,1.7s-3.4-0.7-4.5-1.7
		c-0.3-0.3-0.3-0.7-0.1-1c0.8-0.9,1.8-1.5,2.9-1.9c0.5,0.3,1.1,0.4,1.7,0.4s1.2-0.1,1.7-0.4c1.2,0.3,2.1,1,2.9,1.9
		C16.9,16.5,16.9,16.9,16.5,17.1z"/>
</g>
</svg>
